<?xml version="1.0" encoding="utf-8"?>
<!-- Generator: Adobe Illustrator 17.0.0, SVG Export Plug-In . SVG Version: 6.00 Build 0)  -->
<!DOCTYPE svg PUBLIC "-//W3C//DTD SVG 1.1//EN" "http://www.w3.org/Graphics/SVG/1.1/DTD/svg11.dtd">
<svg version="1.1" id="Layer_1" xmlns="http://www.w3.org/2000/svg" xmlns:xlink="http://www.w3.org/1999/xlink" x="0px" y="0px"
	 width="166px" height="40px" viewBox="0 0 166 40" enable-background="new 0 0 166 40" xml:space="preserve">
<g opacity="0.5">
	<g>
		<path fill="#666766" d="M49.131,4.47h6.231l9.325,26.355h-5.972l-1.739-5.418H47.27l-1.787,5.418h-5.76L49.131,4.47z
			 M48.768,20.866h6.75l-3.33-10.371L48.768,20.866z"/>
		<path fill="#666766" d="M80.356,13.428c1.589,1.681,2.384,4.148,2.384,7.402c0,3.433-0.777,6.05-2.331,7.85s-3.554,2.7-6.001,2.7
			c-1.56,0-2.855-0.388-3.887-1.163c-0.564-0.429-1.116-1.055-1.656-1.877v10.156h-5.042V11.335h4.881v2.879
			c0.552-0.846,1.14-1.514,1.764-2.002c1.14-0.87,2.495-1.305,4.067-1.305C76.826,10.907,78.766,11.747,80.356,13.428z
			 M76.445,17.093c-0.693-1.156-1.815-1.734-3.369-1.734c-1.867,0-3.149,0.876-3.848,2.628c-0.362,0.93-0.542,2.11-0.542,3.54
			c0,2.265,0.607,3.856,1.823,4.774c0.723,0.536,1.578,0.805,2.565,0.805c1.434,0,2.526-0.549,3.279-1.646s1.129-2.557,1.129-4.381
			C77.483,19.579,77.137,18.25,76.445,17.093z"/>
		<path fill="#666766" d="M99.062,13.428c1.59,1.681,2.384,4.148,2.384,7.402c0,3.433-0.777,6.05-2.33,7.85
			c-1.554,1.8-3.555,2.7-6.002,2.7c-1.56,0-2.855-0.388-3.887-1.163c-0.564-0.429-1.116-1.055-1.656-1.877v10.156h-5.042V11.335
			h4.881v2.879c0.552-0.846,1.14-1.514,1.764-2.002c1.14-0.87,2.495-1.305,4.067-1.305C95.533,10.907,97.473,11.747,99.062,13.428z
			 M95.151,17.093c-0.692-1.156-1.815-1.734-3.368-1.734c-1.867,0-3.149,0.876-3.848,2.628c-0.362,0.93-0.542,2.11-0.542,3.54
			c0,2.265,0.607,3.856,1.823,4.774c0.723,0.536,1.578,0.805,2.565,0.805c1.434,0,2.527-0.549,3.28-1.646
			c0.752-1.097,1.129-2.557,1.129-4.381C96.19,19.579,95.843,18.25,95.151,17.093z"/>
		<path fill="#666766" d="M105.331,24.603c0.107,0.906,0.341,1.55,0.7,1.932c0.635,0.679,1.809,1.019,3.521,1.019
			c1.006,0,1.806-0.148,2.398-0.446s0.89-0.745,0.89-1.342c0-0.571-0.239-1.007-0.717-1.305s-2.255-0.811-5.331-1.538
			c-2.215-0.548-3.775-1.233-4.681-2.056c-0.906-0.812-1.359-1.979-1.359-3.505c0-1.8,0.708-3.346,2.124-4.64
			c1.415-1.293,3.407-1.94,5.976-1.94c2.437,0,4.423,0.486,5.958,1.458c1.534,0.972,2.416,2.649,2.643,5.033h-5.096
			c-0.071-0.655-0.257-1.174-0.556-1.556c-0.562-0.691-1.519-1.037-2.869-1.037c-1.111,0-1.903,0.173-2.375,0.519
			c-0.473,0.346-0.708,0.751-0.708,1.216c0,0.584,0.25,1.007,0.753,1.27c0.502,0.274,2.275,0.745,5.32,1.413
			c2.03,0.477,3.552,1.197,4.565,2.163c1.001,0.978,1.502,2.2,1.502,3.666c0,1.931-0.72,3.508-2.159,4.729s-3.664,1.832-6.674,1.832
			c-3.069,0-5.336-0.646-6.799-1.939c-1.463-1.293-2.195-2.941-2.195-4.944H105.331z"/>
		<path fill="#666766" d="M118.028,4.559h5.007v14.218l6.428-7.352h6.337l-6.986,7.26l7.256,12.14h-6.201l-4.723-8.327l-2.11,2.194
			v6.133h-5.007V4.559z"/>
		<path fill="#666766" d="M139.863,11.335v11.748c0,1.108,0.131,1.943,0.392,2.503c0.463,0.99,1.37,1.484,2.722,1.484
			c1.731,0,2.918-0.703,3.559-2.109c0.332-0.764,0.498-1.771,0.498-3.022V11.335h5.168v19.49h-4.953v-2.754
			c-0.048,0.061-0.167,0.239-0.356,0.537c-0.19,0.298-0.416,0.561-0.678,0.786c-0.797,0.716-1.566,1.204-2.309,1.467
			c-0.743,0.262-1.614,0.393-2.612,0.393c-2.877,0-4.814-1.037-5.813-3.11c-0.56-1.145-0.838-2.831-0.838-5.061V11.335H139.863z"/>
		<path fill="#666766" d="M158.694,30.825h-5.096V4.47h5.096V30.825z"/>
		<path fill="#666766" d="M165.207,30.825h-5.096V4.47h5.096V30.825z"/>
	</g>
	<path fill="#666766" d="M25.097,36.545c-0.258,1.515-1.163,2.448-2.457,2.589c-1.205,0.131-2.201-0.574-2.773-2.006
		c-0.086,0.165-0.152,0.295-0.221,0.424c-0.652,1.213-2.032,1.82-3.403,1.497c-1.285-0.303-2.233-1.487-2.259-2.828
		c-0.007-0.373,0.002-0.747-0.002-1.12c-0.007-0.602-0.174-0.809-0.799-0.974c-2.688-0.712-5.11-1.929-7.191-3.763
		C0.839,25.825-0.644,18.825,2.27,12.424C4.836,6.785,9.297,3.263,15.271,1.651c5.305-1.431,10.474-1.004,15.284,1.777
		c4.407,2.548,7.264,6.281,8.249,11.284c0.724,3.675,0.045,7.172-1.602,10.509c-1.116,2.261-2.615,4.24-4.476,5.96
		c-1.377,1.272-2.175,2.83-2.265,4.72c-0.063,1.316-0.824,2.218-2,2.422c-1.476,0.256-2.703-0.333-3.242-1.556
		C25.194,36.712,25.16,36.66,25.097,36.545z M14.093,20.798c0.006-1.942-1.567-3.5-3.536-3.503
		c-1.944-0.003-3.526,1.542-3.538,3.454c-0.012,1.941,1.544,3.51,3.513,3.542C12.46,24.323,14.087,22.726,14.093,20.798z
		 M32.851,16.449c-1.857,0.002-3.338,1.448-3.348,3.27c-0.01,1.829,1.505,3.33,3.357,3.327c1.841-0.002,3.333-1.472,3.338-3.288
		C36.202,17.898,34.735,16.447,32.851,16.449z"/>
</g>
<g>
</g>
<g>
</g>
<g>
</g>
<g>
</g>
<g>
</g>
<g>
</g>
</svg>
