<?xml version="1.0" encoding="utf-8"?>
<!-- Generator: Adobe Illustrator 17.0.0, SVG Export Plug-In . SVG Version: 6.00 Build 0)  -->
<!DOCTYPE svg PUBLIC "-//W3C//DTD SVG 1.1//EN" "http://www.w3.org/Graphics/SVG/1.1/DTD/svg11.dtd">
<svg version="1.1" id="Layer_1" xmlns="http://www.w3.org/2000/svg" xmlns:xlink="http://www.w3.org/1999/xlink" x="0px" y="0px"
	 width="30px" height="30px" viewBox="0 0 30 30" enable-background="new 0 0 30 30" xml:space="preserve">
<path fill="#FFFFFF" d="M19.024,27.919c-0.201,1.183-0.908,1.911-1.918,2.021c-0.941,0.102-1.718-0.448-2.165-1.566
	c-0.067,0.129-0.118,0.23-0.172,0.331c-0.509,0.948-1.586,1.421-2.657,1.169c-1.003-0.237-1.743-1.161-1.764-2.208
	c-0.006-0.292,0.002-0.583-0.002-0.875c-0.006-0.47-0.136-0.632-0.624-0.761c-2.099-0.556-3.99-1.506-5.615-2.938
	C0.083,19.548-1.075,14.083,1.2,9.085c2.004-4.403,5.487-7.153,10.152-8.412c4.142-1.117,8.178-0.784,11.934,1.388
	c3.441,1.99,5.672,4.905,6.441,8.811c0.565,2.87,0.035,5.6-1.251,8.205c-0.872,1.765-2.041,3.311-3.495,4.654
	c-1.075,0.993-1.698,2.21-1.768,3.685c-0.049,1.027-0.643,1.732-1.561,1.891c-1.152,0.2-2.11-0.26-2.532-1.215
	C19.1,28.049,19.074,28.008,19.024,27.919z M10.432,15.623c0.005-1.516-1.224-2.733-2.761-2.735
	c-1.518-0.002-2.753,1.204-2.762,2.697c-0.009,1.515,1.206,2.74,2.743,2.766C9.157,18.375,10.428,17.129,10.432,15.623z
	 M25.079,12.227c-1.45,0.001-2.607,1.131-2.614,2.553c-0.008,1.428,1.175,2.6,2.621,2.598c1.438-0.002,2.603-1.149,2.606-2.567
	C27.695,13.359,26.55,12.226,25.079,12.227z"/>
<g>
</g>
<g>
</g>
<g>
</g>
<g>
</g>
<g>
</g>
<g>
</g>
</svg>
